REM DIRINDEX 1\2\4,1\2\5,1\2\6,1\3\7,1\3\8,1\3\9,1\3\10
REM DIRNAME cjc057,folder01,folder02,folder03,folder04,folder05,folder06,folder07,folder08,folder09
TITLE ""
FILE "b_055.mp3" MP3
  TRACK 01 AUDIO
    TITLE "0:"
    INDEX 01 00:00:00
  TRACK 02 AUDIO
    TITLE "7:cjc057_05780"
    INDEX 01 00:00:11
  TRACK 03 AUDIO
    TITLE "0:"
    INDEX 01 00:01:22
  TRACK 04 AUDIO
    TITLE "8:cjc057_05781"
    INDEX 01 00:01:52
  TRACK 05 AUDIO
    TITLE "0:"
    INDEX 01 00:03:17
  TRACK 06 AUDIO
    TITLE "9:cjc057_05782"
    INDEX 01 00:03:59
  TRACK 07 AUDIO
    TITLE "0:"
    INDEX 01 00:07:19
  TRACK 08 AUDIO
    TITLE "7:cjc057_05783"
    INDEX 01 00:08:24
  TRACK 09 AUDIO
    TITLE "0:"
    INDEX 01 00:09:36
  TRACK 10 AUDIO
    TITLE "8:cjc057_05784"
    INDEX 01 00:09:67
  TRACK 11 AUDIO
    TITLE "0:"
    INDEX 01 00:12:01
  TRACK 12 AUDIO
    TITLE "9:cjc057_05785"
    INDEX 01 00:12:42
  TRACK 13 AUDIO
    TITLE "0:"
    INDEX 01 00:15:17
  TRACK 14 AUDIO
    TITLE "7:cjc057_05786"
    INDEX 01 00:16:20
  TRACK 15 AUDIO
    TITLE "0:"
    INDEX 01 00:17:45
  TRACK 16 AUDIO
    TITLE "8:cjc057_05787"
    INDEX 01 00:17:72
  TRACK 17 AUDIO
    TITLE "0:"
    INDEX 01 00:19:18
  TRACK 18 AUDIO
    TITLE "9:cjc057_05788"
    INDEX 01 00:19:60
  TRACK 19 AUDIO
    TITLE "0:"
    INDEX 01 00:23:46
  TRACK 20 AUDIO
    TITLE "7:cjc057_05789"
    INDEX 01 00:24:49
  TRACK 21 AUDIO
    TITLE "0:"
    INDEX 01 00:25:62
  TRACK 22 AUDIO
    TITLE "8:cjc057_05790"
    INDEX 01 00:26:17
  TRACK 23 AUDIO
    TITLE "0:"
    INDEX 01 00:27:53
  TRACK 24 AUDIO
    TITLE "9:cjc057_05791"
    INDEX 01 00:28:21
  TRACK 25 AUDIO
    TITLE "0:"
    INDEX 01 00:31:37
  TRACK 26 AUDIO
    TITLE "7:cjc057_05792"
    INDEX 01 00:32:43
  TRACK 27 AUDIO
    TITLE "0:"
    INDEX 01 00:33:56
  TRACK 28 AUDIO
    TITLE "8:cjc057_05793"
    INDEX 01 00:34:12
  TRACK 29 AUDIO
    TITLE "0:"
    INDEX 01 00:35:39
  TRACK 30 AUDIO
    TITLE "9:cjc057_05794"
    INDEX 01 00:36:05
  TRACK 31 AUDIO
    TITLE "0:"
    INDEX 01 00:38:43
  TRACK 32 AUDIO
    TITLE "7:cjc057_05795"
    INDEX 01 00:39:49
  TRACK 33 AUDIO
    TITLE "0:"
    INDEX 01 00:41:02
  TRACK 34 AUDIO
    TITLE "8:cjc057_05796"
    INDEX 01 00:41:30
  TRACK 35 AUDIO
    TITLE "0:"
    INDEX 01 00:43:29
  TRACK 36 AUDIO
    TITLE "9:cjc057_05797"
    INDEX 01 00:43:72
  TRACK 37 AUDIO
    TITLE "0:"
    INDEX 01 00:46:37
  TRACK 38 AUDIO
    TITLE "7:cjc057_05798"
    INDEX 01 00:47:42
  TRACK 39 AUDIO
    TITLE "0:"
    INDEX 01 00:48:63
  TRACK 40 AUDIO
    TITLE "8:cjc057_05799"
    INDEX 01 00:49:18
  TRACK 41 AUDIO
    TITLE "0:"
    INDEX 01 00:50:56
  TRACK 42 AUDIO
    TITLE "9:cjc057_05800"
    INDEX 01 00:51:18
  TRACK 43 AUDIO
    TITLE "0:"
    INDEX 01 00:55:22
  TRACK 44 AUDIO
    TITLE "7:cjc057_05801"
    INDEX 01 00:56:25
  TRACK 45 AUDIO
    TITLE "0:"
    INDEX 01 00:57:48
  TRACK 46 AUDIO
    TITLE "8:cjc057_05802"
    INDEX 01 00:58:03
  TRACK 47 AUDIO
    TITLE "0:"
    INDEX 01 01:00:55
  TRACK 48 AUDIO
    TITLE "9:cjc057_05803"
    INDEX 01 01:01:23
  TRACK 49 AUDIO
    TITLE "0:"
    INDEX 01 01:04:15
  TRACK 50 AUDIO
    TITLE "7:cjc057_05804"
    INDEX 01 01:05:21
  TRACK 51 AUDIO
    TITLE "0:"
    INDEX 01 01:06:53
  TRACK 52 AUDIO
    TITLE "8:cjc057_05805"
    INDEX 01 01:07:08
  TRACK 53 AUDIO
    TITLE "0:"
    INDEX 01 01:08:44
  TRACK 54 AUDIO
    TITLE "9:cjc057_05806"
    INDEX 01 01:09:09
  TRACK 55 AUDIO
    TITLE "0:"
    INDEX 01 01:12:48
  TRACK 56 AUDIO
    TITLE "7:cjc057_05807"
    INDEX 01 01:13:53
  TRACK 57 AUDIO
    TITLE "0:"
    INDEX 01 01:15:03
  TRACK 58 AUDIO
    TITLE "8:cjc057_05808"
    INDEX 01 01:15:33
  TRACK 59 AUDIO
    TITLE "0:"
    INDEX 01 01:16:73
  TRACK 60 AUDIO
    TITLE "9:cjc057_05809"
    INDEX 01 01:17:39
  TRACK 61 AUDIO
    TITLE "0:"
    INDEX 01 01:20:55
  TRACK 62 AUDIO
    TITLE "7:cjc057_05810"
    INDEX 01 01:21:59
  TRACK 63 AUDIO
    TITLE "0:"
    INDEX 01 01:23:07
  TRACK 64 AUDIO
    TITLE "8:cjc057_05811"
    INDEX 01 01:23:38
  TRACK 65 AUDIO
    TITLE "0:"
    INDEX 01 01:24:73
  TRACK 66 AUDIO
    TITLE "9:cjc057_05812"
    INDEX 01 01:25:41
  TRACK 67 AUDIO
    TITLE "0:"
    INDEX 01 01:28:74
  TRACK 68 AUDIO
    TITLE "7:cjc057_05813"
    INDEX 01 01:30:03
  TRACK 69 AUDIO
    TITLE "0:"
    INDEX 01 01:31:26
  TRACK 70 AUDIO
    TITLE "8:cjc057_05814"
    INDEX 01 01:31:57
  TRACK 71 AUDIO
    TITLE "0:"
    INDEX 01 01:33:21
  TRACK 72 AUDIO
    TITLE "9:cjc057_05815"
    INDEX 01 01:33:64
  TRACK 73 AUDIO
    TITLE "0:"
    INDEX 01 01:36:56
  TRACK 74 AUDIO
    TITLE "7:cjc057_05816"
    INDEX 01 01:37:60
  TRACK 75 AUDIO
    TITLE "0:"
    INDEX 01 01:38:71
  TRACK 76 AUDIO
    TITLE "8:cjc057_05817"
    INDEX 01 01:39:27
  TRACK 77 AUDIO
    TITLE "0:"
    INDEX 01 01:41:12
  TRACK 78 AUDIO
    TITLE "9:cjc057_05818"
    INDEX 01 01:41:52
  TRACK 79 AUDIO
    TITLE "0:"
    INDEX 01 01:44:50
  TRACK 80 AUDIO
    TITLE "7:cjc057_05819"
    INDEX 01 01:45:53
  TRACK 81 AUDIO
    TITLE "0:"
    INDEX 01 01:47:13
  TRACK 82 AUDIO
    TITLE "8:cjc057_05820"
    INDEX 01 01:47:42
  TRACK 83 AUDIO
    TITLE "0:"
    INDEX 01 01:49:02
  TRACK 84 AUDIO
    TITLE "9:cjc057_05821"
    INDEX 01 01:49:39
  TRACK 85 AUDIO
    TITLE "0:"
    INDEX 01 01:52:51
